<svg xmlns="http://www.w3.org/2000/svg" xmlns:xlink="http://www.w3.org/1999/xlink" version="1.1" width="256" height="256" viewBox="0 0 256 256" xml:space="preserve">

<defs>
</defs>
<g style="stroke: none; stroke-width: 0; stroke-dasharray: none; stroke-linecap: butt; stroke-linejoin: miter; stroke-miterlimit: 10; fill: none; fill-rule: nonzero; opacity: 1;" transform="translate(1.4065934065934016 1.4065934065934016) scale(2.81 2.81)" >
	<path d="M 66.816 75.708 c -1.104 0 -2 -0.896 -2 -2 V 48.883 c 0 -10.927 -8.89 -19.816 -19.816 -19.816 s -19.816 8.889 -19.816 19.816 v 24.825 c 0 1.104 -0.896 2 -2 2 s -2 -0.896 -2 -2 V 48.883 c 0 -13.132 10.684 -23.816 23.816 -23.816 c 13.133 0 23.816 10.684 23.816 23.816 v 24.825 C 68.816 74.813 67.921 75.708 66.816 75.708 z" style="stroke: none; stroke-width: 1; stroke-dasharray: none; stroke-linecap: butt; stroke-linejoin: miter; stroke-miterlimit: 10; fill: rgb(0,0,0); fill-rule: nonzero; opacity: 1;" transform=" matrix(1 0 0 1 0 0) " stroke-linecap="round" />
	<path d="M 74.768 89.663 H 15.232 c -2.94 0 -5.333 -2.392 -5.333 -5.332 v -7.29 c 0 -2.94 2.392 -5.333 5.333 -5.333 h 59.536 c 2.94 0 5.333 2.393 5.333 5.333 v 7.29 C 80.101 87.271 77.708 89.663 74.768 89.663 z M 15.232 75.708 c -0.735 0 -1.333 0.598 -1.333 1.333 v 7.29 c 0 0.734 0.598 1.332 1.333 1.332 h 59.536 c 0.735 0 1.333 -0.598 1.333 -1.332 v -7.29 c 0 -0.735 -0.598 -1.333 -1.333 -1.333 H 15.232 z" style="stroke: none; stroke-width: 1; stroke-dasharray: none; stroke-linecap: butt; stroke-linejoin: miter; stroke-miterlimit: 10; fill: rgb(0,0,0); fill-rule: nonzero; opacity: 1;" transform=" matrix(1 0 0 1 0 0) " stroke-linecap="round" />
	<path d="M 58.069 52.77 c -1.104 0 -2 -0.896 -2 -2 c 0 -6.104 -4.966 -11.07 -11.069 -11.07 c -1.104 0 -2 -0.896 -2 -2 s 0.896 -2 2 -2 c 8.31 0 15.069 6.761 15.069 15.07 C 60.069 51.874 59.174 52.77 58.069 52.77 z" style="stroke: none; stroke-width: 1; stroke-dasharray: none; stroke-linecap: butt; stroke-linejoin: miter; stroke-miterlimit: 10; fill: rgb(0,0,0); fill-rule: nonzero; opacity: 1;" transform=" matrix(1 0 0 1 0 0) " stroke-linecap="round" />
	<path d="M 14.389 47.336 H 2 c -1.104 0 -2 -0.895 -2 -2 c 0 -1.104 0.896 -2 2 -2 h 12.389 c 1.104 0 2 0.896 2 2 C 16.389 46.441 15.494 47.336 14.389 47.336 z" style="stroke: none; stroke-width: 1; stroke-dasharray: none; stroke-linecap: butt; stroke-linejoin: miter; stroke-miterlimit: 10; fill: rgb(0,0,0); fill-rule: nonzero; opacity: 1;" transform=" matrix(1 0 0 1 0 0) " stroke-linecap="round" />
	<path d="M 88 47.336 H 75.61 c -1.104 0 -2 -0.895 -2 -2 c 0 -1.104 0.896 -2 2 -2 H 88 c 1.104 0 2 0.896 2 2 C 90 46.441 89.104 47.336 88 47.336 z" style="stroke: none; stroke-width: 1; stroke-dasharray: none; stroke-linecap: butt; stroke-linejoin: miter; stroke-miterlimit: 10; fill: rgb(0,0,0); fill-rule: nonzero; opacity: 1;" transform=" matrix(1 0 0 1 0 0) " stroke-linecap="round" />
	<path d="M 45 16.726 c -1.104 0 -2 -0.896 -2 -2 V 2.336 c 0 -1.104 0.896 -2 2 -2 s 2 0.896 2 2 v 12.39 C 47 15.831 46.104 16.726 45 16.726 z" style="stroke: none; stroke-width: 1; stroke-dasharray: none; stroke-linecap: butt; stroke-linejoin: miter; stroke-miterlimit: 10; fill: rgb(0,0,0); fill-rule: nonzero; opacity: 1;" transform=" matrix(1 0 0 1 0 0) " stroke-linecap="round" />
	<path d="M 23.355 25.691 c -0.512 0 -1.024 -0.195 -1.414 -0.586 l -8.761 -8.761 c -0.781 -0.781 -0.781 -2.047 0 -2.828 c 0.78 -0.781 2.048 -0.781 2.828 0 l 8.761 8.761 c 0.781 0.781 0.781 2.047 0 2.828 C 24.379 25.496 23.867 25.691 23.355 25.691 z" style="stroke: none; stroke-width: 1; stroke-dasharray: none; stroke-linecap: butt; stroke-linejoin: miter; stroke-miterlimit: 10; fill: rgb(0,0,0); fill-rule: nonzero; opacity: 1;" transform=" matrix(1 0 0 1 0 0) " stroke-linecap="round" />
	<path d="M 66.645 25.691 c -0.512 0 -1.023 -0.195 -1.414 -0.586 c -0.781 -0.781 -0.781 -2.047 0 -2.828 l 8.761 -8.761 c 0.781 -0.781 2.047 -0.781 2.828 0 c 0.781 0.781 0.781 2.047 0 2.828 l -8.761 8.761 C 67.668 25.496 67.156 25.691 66.645 25.691 z" style="stroke: none; stroke-width: 1; stroke-dasharray: none; stroke-linecap: butt; stroke-linejoin: miter; stroke-miterlimit: 10; fill: rgb(0,0,0); fill-rule: nonzero; opacity: 1;" transform=" matrix(1 0 0 1 0 0) " stroke-linecap="round" />
</g>
</svg>